HIERARCHY
ROOT Hips
{
	OFFSET 0.00000 0.00000 0.00000
	CHANNELS 6 Xposition Yposition Zposition Zrotation Yrotation Xrotation 
	JOINT LHipJoint
	{
		OFFSET 0 0 0
		CHANNELS 3 Zrotation Yrotation Xrotation
		JOINT LeftUpLeg
		{
			OFFSET 2.36090 -1.39315 1.24752
			CHANNELS 3 Zrotation Yrotation Xrotation
			JOINT LeftLeg
			{
				OFFSET 2.06810 -5.68207 0.00000
				CHANNELS 3 Zrotation Yrotation Xrotation
				JOINT LeftFoot
				{
					OFFSET 2.46631 -6.77613 0.00000
					CHANNELS 3 Zrotation Yrotation Xrotation
					JOINT LeftToeBase
					{
						OFFSET 0.26031 -0.71520 1.99545
						CHANNELS 3 Zrotation Yrotation Xrotation
						End Site
						{
							OFFSET 0.00000 -0.00000 1.05957
						}
					}
				}
			}
		}
	}
	JOINT RHipJoint
	{
		OFFSET 0 0 0
		CHANNELS 3 Zrotation Yrotation Xrotation
		JOINT RightUpLeg
		{
			OFFSET -2.25243 -1.39315 1.24752
			CHANNELS 3 Zrotation Yrotation Xrotation
			JOINT RightLeg
			{
				OFFSET -2.17343 -5.97145 0.00000
				CHANNELS 3 Zrotation Yrotation Xrotation
				JOINT RightFoot
				{
					OFFSET -2.52372 -6.93386 0.00000
					CHANNELS 3 Zrotation Yrotation Xrotation
					JOINT RightToeBase
					{
						OFFSET -0.22538 -0.61923 2.11447
						CHANNELS 3 Zrotation Yrotation Xrotation
						End Site
						{
							OFFSET -0.00000 -0.00000 1.10506
						}
					}
				}
			}
		}
	}
	JOINT LowerBack
	{
		OFFSET 0 0 0
		CHANNELS 3 Zrotation Yrotation Xrotation
		JOINT Spine
		{
			OFFSET 0.01594 2.13103 0.08007
			CHANNELS 3 Zrotation Yrotation Xrotation
			JOINT Spine1
			{
				OFFSET 0.01393 2.09723 0.18338
				CHANNELS 3 Zrotation Yrotation Xrotation
				JOINT Neck
				{
					OFFSET 0 0 0
					CHANNELS 3 Zrotation Yrotation Xrotation
					JOINT Neck1
					{
						OFFSET 0.05351 1.38915 0.32494
						CHANNELS 3 Zrotation Yrotation Xrotation
						JOINT Head
						{
							OFFSET 0.00711 1.45992 -0.21666
							CHANNELS 3 Zrotation Yrotation Xrotation
							End Site
							{
								OFFSET -0.00433 1.47702 -0.11056
							}
						}
					}
				}
				JOINT LeftShoulder
				{
					OFFSET 0 0 0
					CHANNELS 3 Zrotation Yrotation Xrotation
					JOINT LeftArm
					{
						OFFSET 2.87198 0.92249 0.11132
						CHANNELS 3 Zrotation Yrotation Xrotation
						JOINT LeftForeArm
						{
							OFFSET 5.52731 -0.00000 0.00000
							CHANNELS 3 Zrotation Yrotation Xrotation
							JOINT LeftHand
							{
								OFFSET 3.11059 -0.00000 0.00000
								CHANNELS 3 Zrotation Yrotation Xrotation
								JOINT LeftFingerBase
								{
									OFFSET 0 0 0
									CHANNELS 3 Zrotation Yrotation Xrotation
									JOINT LeftHandIndex1
									{
										OFFSET 0.41963 -0.00000 0.00000
										CHANNELS 3 Zrotation Yrotation Xrotation
										End Site
										{
											OFFSET 0.33831 -0.00000 0.00000
										}
									}
								}
								JOINT LThumb
								{
									OFFSET 0 0 0
									CHANNELS 3 Zrotation Yrotation Xrotation
									End Site
									{
										OFFSET 0.34348 -0.00000 0.34348
									}
								}
							}
						}
					}
				}
				JOINT RightShoulder
				{
					OFFSET 0 0 0
					CHANNELS 3 Zrotation Yrotation Xrotation
					JOINT RightArm
					{
						OFFSET -2.94710 0.68072 0.32187
						CHANNELS 3 Zrotation Yrotation Xrotation
						JOINT RightForeArm
						{
							OFFSET -5.25396 -0.00000 -0.00000
							CHANNELS 3 Zrotation Yrotation Xrotation
							JOINT RightHand
							{
								OFFSET -3.10567 -0.00000 0.00000
								CHANNELS 3 Zrotation Yrotation Xrotation
								JOINT RightFingerBase
								{
									OFFSET 0 0 0
									CHANNELS 3 Zrotation Yrotation Xrotation
									JOINT RightHandIndex1
									{
										OFFSET -0.49868 -0.00000 0.00000
										CHANNELS 3 Zrotation Yrotation Xrotation
										End Site
										{
											OFFSET -0.40204 -0.00000 0.00000
										}
									}
								}
								JOINT RThumb
								{
									OFFSET 0 0 0
									CHANNELS 3 Zrotation Yrotation Xrotation
									End Site
									{
										OFFSET -0.40818 -0.00000 0.40818
									}
								}
							}
						}
					}
				}
			}
		}
	}
}
MOTION
Frames: 16
Frame Time: .0083333
7.3537 15.6212 26.7801 0 0 0 0 0 0 -21 0 0 0 0 0 0 0 0 0 0 0 0 0 0 21 0 0 0 0 0 0 0 0 0 0 0 0 0 0 0 0 0 0 0 0 0 0 -16 0 0 21 0 0 11 0 0 0 -8 0 0 0 0 0 0 0 0 0 0 0 0 0 0 0 0 0 0 0 0 8 0 0 0 0 0 0 0 0 0 0 0 0 0 0 0 0 0
7.3537 15.6212 26.7801 -177.3930 0.2871 -160.2500 0.0000 0.0000 0.0000 -12.7619 -17.7296 -29.1324 2.3946 9.6438 27.8307 0.3925 7.1785 -16.5944 0.8451 -5.8634 -16.3887 0.0000 0.0000 0.0000 23.8403 20.4838 -21.8951 -2.2987 -9.4623 27.2525 0.3267 -16.2395 -19.5127 -0.4194 4.1568 -11.5183 10.5800 4.0102 -15.1405 -0.0120 4.4875 -4.8658 -5.1076 2.5531 3.9864 22.8397 21.2543 4.6482 -13.5405 30.4860 12.2218 -4.4001 15.2372 8.6036 0.0000 -0.0000 0.0000 -77.1918 1.5509 49.5398 19.8032 -30.4045 -5.4314 -0.0000 0.0000 -45.0806 21.9853 -1.7223 -0.6952 -7.1250 0.0000 -0.0000 -3.5528 28.1163 1.4618 0.0000 -0.0000 0.0000 85.3980 -14.4798 17.0893 -15.5207 24.8665 -3.4419 0.0000 -0.0000 -4.4972 -14.0144 -18.4807 4.5237 7.1250 -0.0000 -0.0000 13.7018 -48.4978 -1.2031
7.3733 15.6163 26.7815 -177.3750 0.0813 -160.2560 0.0000 0.0000 0.0000 -12.6309 -17.7226 -29.3794 2.4423 9.7323 28.1140 0.4078 6.9661 -16.5913 0.8621 -5.9207 -16.5544 0.0000 0.0000 0.0000 23.9650 20.4809 -21.8630 -2.2986 -9.4621 27.2517 0.3403 -16.3758 -19.5803 -0.4133 4.1267 -11.4335 10.6914 3.9709 -15.1743 0.0860 4.4051 -4.8005 -5.0776 2.5176 4.0597 23.2135 21.0167 5.3175 -14.2788 30.3674 11.7702 -4.7615 15.2037 8.5100 0.0000 0.0000 0.0000 -77.3494 1.4706 48.9226 19.8062 -30.4082 -5.4329 -0.0000 0.0000 -44.9238 22.8701 -1.7600 -0.7422 -7.1250 0.0000 -0.0000 -2.8678 28.0658 1.1827 0.0000 0.0000 0.0000 85.2699 -14.4707 16.8445 -15.2611 24.5086 -3.3335 0.0000 -0.0000 -4.2063 -14.0655 -18.4856 4.5420 7.1250 -0.0000 -0.0000 13.6558 -48.5101 -1.2031
7.3886 15.6127 26.7815 -177.3670 -0.0492 -160.2450 0.0000 0.0000 0.0000 -12.5116 -17.7580 -29.6805 2.5139 9.8631 28.5345 0.4286 6.8104 -16.7095 0.8631 -5.9242 -16.5647 0.0000 0.0000 0.0000 24.0522 20.4392 -21.8738 -2.3002 -9.4652 27.2617 0.3279 -16.3875 -19.7498 -0.3886 4.0032 -11.0856 10.7877 3.8726 -15.1031 0.2126 4.2836 -4.8555 -5.0280 2.4570 3.9360 22.9661 21.0202 5.0995 -13.9530 30.3064 12.2475 -4.6212 15.1595 8.6016 0.0000 0.0000 0.0000 -77.5312 1.6874 48.2476 19.8460 -30.4563 -5.4531 -0.0000 0.0000 -44.7526 23.1905 -2.6297 -1.1260 -7.1250 0.0000 -0.0000 -2.6084 27.1170 1.1338 0.0000 0.0000 0.0000 85.0432 -14.6670 16.9092 -15.0747 24.2501 -3.2566 0.0000 -0.0000 -4.1900 -14.2058 -15.5126 3.8732 7.1250 -0.0000 -0.0000 12.5680 -45.5732 -0.1807
7.4082 15.6059 26.7845 -177.3430 -0.3205 -160.1960 0.0000 0.0000 0.0000 -12.3503 -17.7160 -30.1551 2.5923 10.0038 28.9889 0.4439 6.4912 -16.6208 0.8692 -5.9446 -16.6238 0.0000 0.0000 0.0000 24.1713 20.3804 -21.9437 -2.3032 -9.4710 27.2802 0.3432 -16.5237 -19.7978 -0.4063 4.0921 -11.3359 10.9417 3.8583 -15.0718 0.3187 4.2560 -4.8736 -5.0086 2.4466 3.8940 22.8476 20.8720 4.6815 -14.1524 30.0885 12.6219 -4.6581 15.0118 8.7745 0.0000 -0.0000 0.0000 -77.8045 1.6787 47.6251 19.8096 -30.4123 -5.4347 -0.0000 0.0000 -44.2396 23.8151 -2.5643 -1.1313 -7.1250 0.0000 -0.0000 -2.1302 27.1756 0.9227 0.0000 -0.0000 0.0000 84.8439 -14.7258 16.6367 -14.8291 23.9075 -3.1564 0.0000 -0.0000 -3.9264 -14.1778 -17.9826 4.4596 7.1250 -0.0000 -0.0000 13.3758 -48.0276 -1.0161
7.4254 15.5988 26.7865 -177.3160 -0.5413 -160.1600 0.0000 0.0000 0.0000 -12.1844 -17.7303 -30.6236 2.6867 10.1698 29.5282 0.4616 6.2434 -16.6284 0.8698 -5.9463 -16.6287 0.0000 0.0000 0.0000 24.2849 20.3217 -22.0087 -2.3087 -9.4815 27.3135 0.3436 -16.5968 -19.9187 -0.4027 4.0741 -11.2853 10.8297 4.7969 -15.0469 0.3555 3.9552 -4.9193 -4.9978 1.6195 3.8898 22.7289 20.7613 4.4003 -14.1837 29.9168 13.0001 -4.6528 14.9003 8.9063 0.0000 0.0000 0.0000 -78.0202 1.7654 46.9688 19.8043 -30.4058 -5.4319 -0.0000 0.0000 -43.8691 24.3024 -2.8215 -1.2734 -7.1250 0.0000 -0.0000 -1.7563 26.8835 0.7727 0.0000 0.0000 0.0000 84.6447 -14.8196 16.5180 -14.5994 23.5851 -3.0639 0.0000 -0.0000 -3.7583 -14.1919 -18.1653 4.5079 7.1250 -0.0000 -0.0000 13.4255 -48.2108 -1.0816
7.4417 15.5905 26.7890 -177.2750 -0.7685 -160.1160 0.0000 0.0000 0.0000 -11.9878 -17.7640 -31.1763 2.8036 10.3701 30.1837 0.4803 5.9860 -16.6461 0.8619 -5.9201 -16.5528 0.0000 0.0000 0.0000 24.4106 20.2451 -22.0983 -2.3161 -9.4956 27.3584 0.3399 -16.6511 -20.0554 -0.3988 4.0545 -11.2301 11.0069 4.7655 -14.9858 0.4594 3.8794 -4.9715 -5.0056 1.5695 3.7921 22.5631 20.6480 4.0109 -14.1365 29.7172 13.4808 -4.6122 14.7687 9.0658 -0.0000 -0.0000 0.0000 -78.2390 1.8761 46.2979 19.7939 -30.3932 -5.4267 -0.0000 0.0000 -43.4654 24.7014 -3.0909 -1.4208 -7.1250 0.0000 -0.0000 -1.4523 26.5777 0.6492 -0.0000 -0.0000 0.0000 84.4347 -14.9200 16.4403 -14.3757 23.2693 -2.9749 0.0000 -0.0000 -3.6139 -14.1779 -18.3700 4.5521 7.1250 -0.0000 -0.0000 13.5097 -48.4117 -1.1565
7.4573 15.5808 26.7920 -177.2150 -1.0036 -160.0670 0.0000 0.0000 0.0000 -11.7541 -17.8157 -31.8059 2.9410 10.5989 30.9388 0.4983 5.7227 -16.6538 0.8487 -5.8758 -16.4246 0.0000 0.0000 0.0000 24.5561 20.1498 -22.2101 -2.3252 -9.5130 27.4135 0.3308 -16.6798 -20.2111 -0.3922 4.0213 -11.1367 11.2168 4.7359 -14.9065 0.5633 3.8031 -5.0360 -5.0326 1.5167 3.6730 22.3930 20.5118 3.5948 -14.0724 29.4807 13.9950 -4.5715 14.6176 9.2324 0.0000 -0.0000 0.0000 -78.4556 2.0009 45.6184 19.7794 -30.3756 -5.4194 -0.0000 0.0000 -43.0494 25.0268 -3.3438 -1.5599 -7.1250 0.0000 -0.0000 -1.2063 26.2901 0.5474 0.0000 -0.0000 0.0000 84.2190 -15.0180 16.4002 -14.1547 22.9554 -2.8882 0.0000 -0.0000 -3.4760 -14.1518 -18.6184 4.6024 7.1250 -0.0000 -0.0000 13.6219 -48.6539 -1.2490
7.4716 15.5700 26.7957 -177.1250 -1.2400 -160.0160 0.0000 0.0000 0.0000 -11.4720 -17.8929 -32.5200 3.1050 10.8631 31.8197 0.5155 5.4639 -16.6609 0.8308 -5.8149 -16.2484 0.0000 0.0000 0.0000 24.7310 20.0307 -22.3351 -2.3341 -9.5299 27.4674 0.3148 -16.6716 -20.3836 -0.3813 3.9658 -10.9804 11.4649 4.7052 -14.8033 0.6713 3.7220 -5.1145 -5.0785 1.4581 3.5268 22.2110 20.3549 3.1666 -13.9655 29.2074 14.5423 -4.5240 14.4490 9.3981 0.0000 0.0000 0.0000 -78.6666 2.1539 44.9340 19.7679 -30.3617 -5.4135 -0.0000 0.0000 -42.6442 25.2568 -3.6313 -1.7115 -7.1250 0.0000 -0.0000 -1.0350 25.9656 0.4774 0.0000 0.0000 0.0000 83.9929 -15.1208 16.4216 -13.9457 22.6570 -2.8071 0.0000 -0.0000 -3.3709 -14.1136 -18.6511 4.5973 7.1250 -0.0000 -0.0000 13.6692 -48.6808 -1.2627
7.4849 15.5580 26.8004 -177.0000 -1.4806 -159.9640 0.0000 0.0000 0.0000 -11.1337 -17.9894 -33.3230 3.2980 11.1625 32.8298 0.5320 5.2113 -16.6676 0.8140 -5.7575 -16.0823 0.0000 0.0000 0.0000 24.9447 19.8885 -22.4679 -2.3412 -9.5432 27.5099 0.2955 -16.6345 -20.5440 -0.3707 3.9109 -10.8262 11.7570 4.6784 -14.6681 0.7871 3.6433 -5.2062 -5.1414 1.3968 3.3510 22.0070 20.1735 2.7041 -13.8185 28.8892 15.1279 -4.4687 14.2575 9.5665 -0.0000 -0.0000 0.0000 -78.8753 2.3332 44.2668 19.7685 -30.3624 -5.4138 -0.0000 0.0000 -42.2614 25.4133 -3.8999 -1.8508 -7.1250 0.0000 -0.0000 -0.9204 25.6634 0.4310 -0.0000 -0.0000 0.0000 83.7526 -15.2272 16.4938 -13.7540 22.3820 -2.7338 0.0000 -0.0000 -3.2914 -14.0523 -18.6784 4.5830 7.1250 -0.0000 -0.0000 13.7366 -48.6989 -1.2753
7.4972 15.5450 26.8058 -176.8330 -1.7256 -159.9150 0.0000 0.0000 0.0000 -10.7354 -18.1000 -34.2133 3.5216 11.4950 33.9680 0.5447 4.9802 -16.6502 0.8028 -5.7184 -15.9696 0.0000 0.0000 0.0000 25.2053 19.7239 -22.5960 -2.3441 -9.5487 27.5274 0.2744 -16.5718 -20.6814 -0.3607 3.8583 -10.6784 12.0952 4.6542 -14.5013 0.9153 3.5649 -5.3101 -5.2175 1.3316 3.1462 21.7961 19.9619 2.2535 -13.6613 28.5276 15.7153 -4.4214 14.0464 9.7250 0.0000 0.0000 0.0000 -79.0876 2.5455 43.6170 19.7850 -30.3825 -5.4222 -0.0000 0.0000 -41.9109 25.5017 -4.1537 -1.9788 -7.1250 0.0000 -0.0000 -0.8581 25.3795 0.4075 0.0000 0.0000 0.0000 83.4916 -15.3299 16.6133 -13.5756 22.1248 -2.6662 0.0000 -0.0000 -3.2325 -13.9574 -18.6963 4.5551 7.1250 -0.0000 -0.0000 13.8322 -48.7028 -1.2859
7.5082 15.5312 26.8119 -176.6190 -1.9765 -159.8750 0.0000 0.0000 0.0000 -10.2793 -18.2147 -35.1795 3.7767 11.8572 35.2286 0.5522 4.7786 -16.5957 0.7996 -5.7073 -15.9374 0.0000 0.0000 0.0000 25.5205 19.5300 -22.7045 -2.3407 -9.5424 27.5072 0.2644 -16.5200 -20.7103 -0.3703 3.9087 -10.8200 12.4837 4.6304 -14.3033 1.0581 3.4837 -5.4248 -5.3071 1.2603 2.9133 21.5585 19.7295 1.7795 -13.4721 28.1280 16.3289 -4.3678 13.8161 9.8830 -0.0000 -0.0000 0.0000 -79.3074 2.7943 42.9753 19.8114 -30.4144 -5.4355 -0.0000 0.0000 -41.6019 25.5268 -4.3480 -2.0735 -7.1250 0.0000 -0.0000 -0.8428 25.1635 0.4045 -0.0000 -0.0000 0.0000 83.2065 -15.4316 16.7936 -13.4126 21.8887 -2.6051 0.0000 -0.0000 -3.2023 -13.8205 -18.7350 4.5178 7.1250 -0.0000 -0.0000 13.9746 -48.7211 -1.3060
7.5182 15.5167 26.8182 -176.3540 -2.2328 -159.8450 0.0000 0.0000 0.0000 -9.7630 -18.3248 -36.2170 4.0634 12.2443 36.6017 0.5505 4.6254 -16.4680 0.8095 -5.7417 -16.0367 0.0000 0.0000 0.0000 25.8966 19.3197 -22.7798 -2.3289 -9.5199 27.4356 0.2676 -16.4917 -20.6274 -0.3995 4.0579 -11.2396 12.9165 4.6059 -14.0824 1.2236 3.3979 -5.5450 -5.3978 1.1826 2.6612 21.2953 19.4767 1.3037 -13.2707 27.6969 16.9478 -4.3151 13.5699 10.0344 0.0000 0.0000 0.0000 -79.5468 3.0735 42.3448 19.8458 -30.4561 -5.4529 -0.0000 0.0000 -41.3453 25.5219 -4.5132 -2.1515 -7.1250 0.0000 -0.0000 -0.8498 24.9809 0.4115 0.0000 0.0000 0.0000 82.8841 -15.5134 17.0278 -13.2536 21.6576 -2.5461 0.0000 -0.0000 -3.1721 -13.6360 -18.7868 4.4672 7.1250 -0.0000 -0.0000 14.1664 -48.7454 -1.3332
7.5271 15.5022 26.8245 -176.0440 -2.4902 -159.8260 0.0000 0.0000 0.0000 -9.1978 -18.4262 -37.3117 4.3803 12.6500 38.0720 0.5425 4.5104 -16.2925 0.8212 -5.7822 -16.1539 0.0000 0.0000 0.0000 26.3265 19.0889 -22.8159 -2.3076 -9.4793 27.3066 0.2772 -16.4641 -20.4740 -0.4404 4.2582 -11.8043 13.3829 4.5758 -13.8472 1.4118 3.3019 -5.6641 -5.4839 1.0964 2.3996 21.0139 19.2086 0.8412 -13.0780 27.2466 17.5513 -4.2696 13.3141 10.1763 -0.0000 -0.0000 0.0000 -79.8105 3.3756 41.7093 19.8807 -30.4983 -5.4707 -0.0000 0.0000 -41.1426 25.4980 -4.6210 -2.2004 -7.1250 0.0000 -0.0000 -0.8700 24.8626 0.4236 -0.0000 -0.0000 0.0000 82.5218 -15.5609 17.3288 -13.0911 21.4205 -2.4865 0.0000 -0.0000 -3.1224 -13.4225 -18.8560 4.4105 7.1250 -0.0000 -0.0000 14.3919 -48.7825 -1.3686
7.5351 15.4878 26.8305 -175.6930 -2.7414 -159.8210 0.0000 0.0000 0.0000 -8.5904 -18.5155 -38.4446 4.7246 13.0668 39.6189 0.5298 4.4309 -16.0842 0.8257 -5.7977 -16.1985 0.0000 0.0000 0.0000 26.8062 18.8434 -22.8073 -2.2769 -9.4206 27.1199 0.2888 -16.4272 -20.2794 -0.4870 4.4749 -12.4167 13.8728 4.5416 -13.6014 1.6248 3.1986 -5.7774 -5.5561 1.0039 2.1356 20.7152 18.9338 0.3969 -12.9003 26.7916 18.1326 -4.2304 13.0549 10.3091 0.0000 0.0000 0.0000 -80.1042 3.6908 41.0798 19.9122 -30.5364 -5.4866 -0.0000 0.0000 -40.9974 25.4703 -4.6754 -2.2235 -7.1250 0.0000 -0.0000 -0.8919 24.8037 0.4355 0.0000 0.0000 0.0000 82.1171 -15.5669 17.6854 -12.9236 21.1752 -2.4256 0.0000 -0.0000 -3.0382 -13.1835 -18.9489 4.3498 7.1250 -0.0000 -0.0000 14.6504 -48.8389 -1.4149
7.5422 15.4737 26.8362 -175.3100 -2.9782 -159.8270 0.0000 0.0000 0.0000 -7.9560 -18.5855 -39.6020 5.0917 13.4863 41.2172 0.5134 4.3866 -15.8527 0.8242 -5.7923 -16.1830 0.0000 0.0000 0.0000 27.3216 18.5929 -22.7606 -2.2384 -9.3459 26.8834 0.2957 -16.3603 -20.0874 -0.5278 4.6557 -12.9290 14.3726 4.5043 -13.3438 1.8585 3.0926 -5.8822 -5.6105 0.9081 1.8716 20.3769 18.6497 -0.0597 -12.7224 26.3232 18.7063 -4.1888 12.7862 10.4359 0.0000 0.0000 0.0000 -80.4267 4.0088 40.4664 19.9392 -30.5690 -5.5004 -0.0000 0.0000 -40.9042 25.4641 -4.6708 -2.2207 -7.1250 0.0000 -0.0000 -0.8965 24.8090 0.4377 0.0000 0.0000 0.0000 81.6772 -15.5228 18.0807 -12.7513 20.9217 -2.3637 0.0000 -0.0000 -2.9046 -12.9450 -19.0510 4.2907 7.1250 -0.0000 -0.0000 14.9122 -48.9044 -1.4657
